<svg xmlns="http://www.w3.org/2000/svg" width="20" height="20" fill="currentColor" viewBox="0 0 24 24"><path d="M12 .5A12 12 0 0 0 0 12.66c0 5.36 3.44 9.9 8.21 11.5.6.12.82-.27.82-.59 0-.29-.01-1.06-.02-2.07-3.34.75-4.04-1.65-4.04-1.65-.54-1.4-1.33-1.77-1.33-1.77-1.09-.77.08-.76.08-.76 1.2.09 1.83 1.26 1.83 1.26 1.07 1.9 2.81 1.35 3.5 1.03.11-.8.42-1.35.76-1.66-2.66-.31-5.46-1.38-5.46-6.14 0-1.36.46-2.47 1.22-3.34-.12-.31-.53-1.58.12-3.29 0 0 1-.33 3.3 1.27a11.2 11.2 0 0 1 6 0c2.3-1.6 3.3-1.27 3.3-1.27.65 1.71.24 2.98.12 3.29.76.87 1.22 1.98 1.22 3.34 0 4.77-2.8 5.82-5.48 6.13.43.39.81 1.17.81 2.36 0 1.71-.02 3.08-.02 3.5 0 .32.22.72.82.59A12 12 0 0 0 24 12.66 12 12 0 0 0 12 .5z"/></svg>